# xmcd
#
# Track frame offsets: 
#        150
#        15728
#        32796
#        49342
#        64941
#        77298
#        94675
#        114116
#        127744
#        144470
#        161547
#        173586
#        189530
#        206604
#        224728
#        241631
#        257001
#        270869
#        286357
#
# Disc length: 4039 seconds
#
# Revision: 3
# Processed by: cddbd v1.5.2PL0 Copyright (c) Steve Scherf et al.
# Submitted via: ExactAudioCopyFreeDBPlugin 1.0
#
DISCID=fc0fc513
DTITLE=Various Artist - Promo Only Country Radio July 2006
DYEAR=2006
DGENRE=Country
TTITLE0=Cowboy Troy feat. Big and Rich - My Last Yee Haw (Album Version)
TTITLE1=Pat Green - Feels Just Like It Should
TTITLE2=SHeDAISY - In Terms Of Love
TTITLE3=Big and Rich - 8th Of November
TTITLE4=Jack Ingram - Love You
TTITLE5=Brooks and Dunn feat. Sheryl Crow and Vince Gill - Building Bridge
TTITLE5=s
TTITLE6=Dixie Chicks - Everybody Knows
TTITLE7=Darryl Worley - Nothin' But A Love Thang
TTITLE8=Jeff Bates - One Second Chance
TTITLE9=Steve Azar - You Don't Know A Thing
TTITLE10=Sawyer Brown - Keep Your Hands To Yourself
TTITLE11=Gary Nichols - Unbroken Ground
TTITLE12=Bomshel - Ain't My Day To Care
TTITLE13=Chris Cage - Anywhere But Here
TTITLE14=Trent Tomlinson - One Wing In The Fire
TTITLE15=Julie Roberts - Men and Mascara
TTITLE16=Mark McGuinn - Deep
TTITLE17=Clint Black - Heartaches
TTITLE18=Faith Hill - The Lucky One (Live Version)
EXTD=
EXTT0=Content Warning (2-Step)
EXTT1=(Cha-Cha)
EXTT2=(Ballad)
EXTT3=(Patriotic Ballad)
EXTT4=(West Coast)
EXTT5=(Cha-Cha)
EXTT6=(2-Step)
EXTT7=Content Warning (2-Step)
EXTT8=(Ballad)
EXTT9=(2-Step Fast)
EXTT10=(West Coast)
EXTT11=(Ballad)
EXTT12=(Ballad)
EXTT13=(Ballad)
EXTT14=(Ballad)
EXTT15=(Ballad)
EXTT16=(Ballad)
EXTT17=(Ballad)
EXTT18=(East Coast)
PLAYORDER=
